<?xml version="1.0" standalone="no"?>
<!DOCTYPE svg PUBLIC "-//W3C//DTD SVG 20010904//EN"
 "http://www.w3.org/TR/2001/REC-SVG-20010904/DTD/svg10.dtd">
<svg version="1.0" xmlns="http://www.w3.org/2000/svg"
 width="700.000000pt" height="700.000000pt" viewBox="0 0 700.000000 700.000000"
 preserveAspectRatio="xMidYMid meet">
<metadata>
Created by potrace 1.11, written by Peter Selinger 2001-2013
</metadata>
<g transform="translate(0.000000,700.000000) scale(0.100000,-0.100000)"
fill="#000000" stroke="none">
<path d="M4710 6913 c-69 -18 -156 -76 -201 -136 -116 -154 -87 -386 63 -503
l27 -21 -64 -131 -64 -130 -108 28 c-59 16 -171 45 -248 65 -77 20 -147 38
-155 40 -8 2 -135 36 -282 75 -147 38 -280 70 -295 70 -36 -1 -60 -19 -68 -52
-10 -40 10 -68 124 -168 14 -12 157 -143 261 -240 9 -8 67 -62 130 -120 167
-154 174 -160 169 -163 -2 -2 -76 -23 -164 -46 -88 -23 -171 -46 -185 -51 -14
-5 -58 -17 -99 -27 -41 -10 -84 -28 -97 -40 -26 -24 -26 -24 -25 -205 0 -65
-3 -119 -8 -122 -4 -3 -97 -6 -205 -6 -209 -2 -255 -9 -346 -55 -102 -52 -210
-178 -246 -288 -9 -29 -21 -56 -26 -62 -5 -6 -129 -10 -316 -11 -249 -1 -320
-4 -376 -18 -317 -76 -550 -325 -599 -639 -10 -63 -13 -322 -12 -1099 0 -559
-3 -1014 -7 -1010 -3 4 -61 185 -128 402 -67 217 -138 447 -157 510 -32 102
-36 129 -38 240 -3 157 -1 146 -25 170 -27 27 -66 25 -96 -5 l-24 -24 1 -633
c0 -588 2 -637 19 -690 56 -172 217 -299 390 -307 30 -2 57 -5 60 -7 2 -3 5
-85 6 -182 2 -238 21 -334 95 -470 85 -160 240 -295 410 -360 31 -12 53 -26
51 -33 -2 -9 0 -10 11 -1 9 8 24 9 48 2 18 -6 46 -10 60 -10 18 0 33 -9 45
-27 9 -16 31 -41 48 -57 17 -15 26 -26 20 -22 -6 3 -11 -1 -11 -9 0 -11 4 -12
13 -4 8 7 25 3 55 -13 l44 -23 818 -3 c643 -2 816 -5 811 -15 -6 -9 -5 -9 7 0
12 10 129 13 488 13 259 0 477 -2 483 -6 7 -4 8 -3 4 4 -4 8 0 12 11 12 48 1
138 64 176 123 16 24 21 27 35 15 11 -9 14 -10 8 0 -5 8 0 12 15 12 30 0 155
37 209 63 137 64 270 184 345 312 49 84 71 138 92 230 17 73 18 176 23 1660 1
275 3 496 5 490 2 -5 22 -71 45 -145 23 -74 61 -198 85 -275 24 -77 57 -187
75 -245 17 -58 35 -116 40 -130 60 -171 73 -236 73 -355 -1 -132 5 -157 40
-180 31 -20 80 -4 96 31 8 19 11 196 10 642 -1 669 -1 675 -56 770 -77 133
-199 212 -350 228 l-63 7 -1 146 c0 190 -6 249 -35 349 -41 140 -98 236 -203
341 -112 112 -263 189 -430 219 -29 5 -164 10 -300 10 -135 1 -268 1 -296 2
l-50 0 -17 58 c-43 147 -178 282 -333 332 -53 17 -59 18 -282 19 l-193 1 1
114 0 114 47 12 c26 7 67 18 92 25 70 21 370 103 423 116 58 14 97 55 90 93
-5 23 -47 66 -243 246 -294 270 -337 311 -320 305 8 -2 119 -32 245 -65 127
-34 262 -70 300 -80 117 -31 271 -70 292 -74 43 -9 66 20 152 190 l86 168 63
-1 c172 -2 320 109 361 272 14 55 13 157 -2 195 -30 77 -50 110 -90 152 -93
96 -227 134 -357 101z"/>
<path d="M5456 402 c-3 -5 1 -9 9 -9 8 0 12 4 9 9 -3 4 -7 8 -9 8 -2 0 -6 -4
-9 -8z"/>
<path d="M5640 400 c-9 -6 -10 -10 -3 -10 6 0 15 5 18 10 8 12 4 12 -15 0z"/>
<path d="M5719 353 c-13 -16 -12 -17 4 -4 9 7 17 15 17 17 0 8 -8 3 -21 -13z"/>
<path d="M1755 309 c-4 -6 -5 -12 -2 -15 2 -3 7 2 10 11 7 17 1 20 -8 4z"/>
<path d="M2070 286 c0 -2 7 -7 16 -10 8 -3 12 -2 9 4 -6 10 -25 14 -25 6z"/>
<path d="M1836 253 c-6 -14 -5 -15 5 -6 7 7 10 15 7 18 -3 3 -9 -2 -12 -12z"/>
<path d="M2710 261 c0 -6 4 -13 10 -16 6 -3 7 1 4 9 -7 18 -14 21 -14 7z"/>
<path d="M3316 253 c-6 -14 -5 -15 5 -6 7 7 10 15 7 18 -3 3 -9 -2 -12 -12z"/>
<path d="M3436 253 c-6 -14 -5 -15 5 -6 7 7 10 15 7 18 -3 3 -9 -2 -12 -12z"/>
<path d="M1936 238 c3 -5 10 -6 15 -3 13 9 11 12 -6 12 -8 0 -12 -4 -9 -9z"/>
<path d="M2756 227 c3 -10 9 -15 12 -12 3 3 0 11 -7 18 -10 9 -11 8 -5 -6z"/>
<path d="M4195 229 c-4 -6 -5 -12 -2 -15 2 -3 7 2 10 11 7 17 1 20 -8 4z"/>
<path d="M4756 227 c3 -10 9 -15 12 -12 3 3 0 11 -7 18 -10 9 -11 8 -5 -6z"/>
<path d="M2715 209 c-4 -6 -5 -12 -2 -15 2 -3 7 2 10 11 7 17 1 20 -8 4z"/>
<path d="M4234 200 c0 -13 4 -16 10 -10 7 7 7 13 0 20 -6 6 -10 3 -10 -10z"/>
<path d="M2636 193 c-6 -14 -5 -15 5 -6 7 7 10 15 7 18 -3 3 -9 -2 -12 -12z"/>
<path d="M2916 173 c-6 -14 -5 -15 5 -6 7 7 10 15 7 18 -3 3 -9 -2 -12 -12z"/>
<path d="M4190 181 c0 -6 4 -13 10 -16 6 -3 7 1 4 9 -7 18 -14 21 -14 7z"/>
<path d="M3395 160 c3 -5 8 -10 11 -10 2 0 4 5 4 10 0 6 -5 10 -11 10 -5 0 -7
-4 -4 -10z"/>
</g>
</svg>
